<?xml version="1.0" encoding="UTF-8" standalone="no"?>
<svg width="2261px" height="400px" viewBox="0 0 2261 400" version="1.1" xmlns="http://www.w3.org/2000/svg" xmlns:xlink="http://www.w3.org/1999/xlink">
    <!-- Generator: Sketch 39.1 (31720) - http://www.bohemiancoding.com/sketch -->
    <title>nodejs/awesome-nodejs</title>
    <desc>Created with Sketch.</desc>
    <defs>
        <linearGradient x1="0%" y1="50%" x2="100%" y2="50%" id="linearGradient-1">
            <stop stop-color="#31772B" offset="0%"/>
            <stop stop-color="#56B42D" offset="100%"/>
        </linearGradient>
    </defs>
    <g id="Page-1" stroke="none" stroke-width="1" fill="none" fill-rule="evenodd">
        <g id="Nodejs" transform="translate(-481.000000, 0.000000)">
            <g id="Nodejs-Awesome" transform="translate(481.000000, 0.000000)">
                <g id="JS-short">
                    <rect id="Rectangle-1-Copy-3" fill="url(#linearGradient-1)" x="0" y="0" width="400" height="400"/>
                    <g id="bars-icon-copy-3" transform="translate(285.000000, 295.000000)" fill="#FEFEFE">
                        <rect id="Rectangle-2" x="0" y="0" width="84.7826087" height="15"/>
                        <rect id="Rectangle-2-Copy" x="0" y="30" width="84.7826087" height="15"/>
                        <rect id="Rectangle-2-Copy-2" x="0" y="60" width="84.7826087" height="15"/>
                    </g>
                </g>
                <path d="M500.74,366 L500.74,328.95 C500.74,322.189966 499.76501,317.09835 497.815,313.675 C495.86499,310.25165 492.290026,308.54 487.09,308.54 C482.496644,308.54 478.705015,309.774988 475.715,312.245 C472.724985,314.715012 470.623339,317.813315 469.41,321.54 L469.41,366 L459.01,366 L459.01,301 L466.29,301 L468.24,308.93 L468.76,308.93 C470.84001,306.156653 473.634982,303.881676 477.145,302.105 C480.655018,300.328324 484.836642,299.44 489.69,299.44 C493.243351,299.44 496.36332,299.851663 499.05,300.675 C501.73668,301.498337 503.968324,302.94999 505.745,305.03 C507.521676,307.11001 508.864995,309.904982 509.775,313.415 C510.685005,316.925018 511.14,321.36664 511.14,326.74 L511.14,366 L500.74,366 Z M526.48,333.5 C526.48,322.493278 528.928309,314.065029 533.825,308.215 C538.721691,302.364971 545.763287,299.44 554.95,299.44 C559.803358,299.44 564.028315,300.241659 567.625,301.845 C571.221685,303.448341 574.189988,305.744985 576.53,308.735 C578.870012,311.725015 580.603328,315.321646 581.73,319.525 C582.856672,323.728354 583.42,328.386641 583.42,333.5 C583.42,344.506722 580.971691,352.934971 576.075,358.785 C571.178309,364.635029 564.136713,367.56 554.95,367.56 C550.096642,367.56 545.871685,366.758341 542.275,365.155 C538.678315,363.551659 535.710012,361.255015 533.37,358.265 C531.029988,355.274985 529.296672,351.678354 528.17,347.475 C527.043328,343.271646 526.48,338.613359 526.48,333.5 L526.48,333.5 Z M537.27,333.5 C537.27,336.79335 537.594997,339.956652 538.245,342.99 C538.895003,346.023349 539.913326,348.666655 541.3,350.92 C542.686674,353.173345 544.506655,354.993326 546.76,356.38 C549.013345,357.766674 551.743317,358.46 554.95,358.46 C566.736726,358.546667 572.63,350.22675 572.63,333.5 C572.63,330.119983 572.305003,326.913349 571.655,323.88 C571.004997,320.846652 569.986674,318.203345 568.6,315.95 C567.213326,313.696655 565.393345,311.89834 563.14,310.555 C560.886655,309.21166 558.156683,308.54 554.95,308.54 C543.163274,308.453333 537.27,316.77325 537.27,333.5 L537.27,333.5 Z M649.72,343.64 C649.72,348.060022 649.763333,352.068315 649.85,355.665 C649.936667,359.261685 650.326663,362.793316 651.02,366.26 L644,366.26 L641.4,357.03 L640.88,357.03 C639.146658,360.063348 636.63335,362.576657 633.34,364.57 C630.04665,366.563343 626.190022,367.56 621.77,367.56 C613.10329,367.56 606.668354,364.830027 602.465,359.37 C598.261646,353.909973 596.16,345.373391 596.16,333.76 C596.16,322.666611 598.78164,314.238362 604.025,308.475 C609.26836,302.711638 616.483287,299.83 625.67,299.83 C628.876683,299.83 631.411657,300.003332 633.275,300.35 C635.138343,300.696668 637.153323,301.259996 639.32,302.04 L639.32,275 L649.72,275 L649.72,343.64 Z M623.46,358.46 C627.880022,358.46 631.389987,357.311678 633.99,355.015 C636.590013,352.718322 638.366662,349.230023 639.32,344.55 L639.32,312.31 C637.759992,311.096661 635.983343,310.230003 633.99,309.71 C631.996657,309.189997 629.35335,308.93 626.06,308.93 C620.07997,308.93 615.400017,310.901647 612.02,314.845 C608.639983,318.788353 606.95,325.09329 606.95,333.76 C606.95,337.313351 607.231664,340.606652 607.795,343.64 C608.358336,346.673349 609.289994,349.273323 610.59,351.44 C611.890007,353.606678 613.601656,355.318327 615.725,356.575 C617.848344,357.831673 620.426652,358.46 623.46,358.46 L623.46,358.46 Z M717.19,360.8 C714.589987,362.88001 711.318353,364.526661 707.375,365.74 C703.431647,366.953339 699.250022,367.56 694.83,367.56 C689.889975,367.56 685.600018,366.758341 681.96,365.155 C678.319982,363.551659 675.330012,361.255015 672.99,358.265 C670.649988,355.274985 668.916672,351.700021 667.79,347.54 C666.663328,343.379979 666.1,338.700026 666.1,333.5 C666.1,322.406611 668.569975,313.956696 673.51,308.15 C678.450025,302.343304 685.513287,299.44 694.7,299.44 C697.646681,299.44 700.593319,299.764997 703.54,300.415 C706.486681,301.065003 709.129988,302.299991 711.47,304.12 C713.810012,305.940009 715.716659,308.518317 717.19,311.855 C718.663341,315.191683 719.4,319.589973 719.4,325.05 C719.4,327.910014 719.140003,331.073316 718.62,334.54 L676.89,334.54 C676.89,338.353352 677.279996,341.733319 678.06,344.68 C678.840004,347.626681 680.053325,350.118323 681.7,352.155 C683.346675,354.191677 685.491653,355.751661 688.135,356.835 C690.778347,357.918339 694.006648,358.46 697.82,358.46 C700.766681,358.46 703.713319,357.940005 706.66,356.9 C709.606681,355.859995 711.816659,354.646674 713.29,353.26 L717.19,360.8 Z M694.83,308.54 C689.716641,308.54 685.621682,309.88332 682.545,312.57 C679.468318,315.25668 677.62667,319.849967 677.02,326.35 L709.26,326.35 C709.26,319.7633 708.003346,315.148347 705.49,312.505 C702.976654,309.861653 699.423356,308.54 694.83,308.54 L694.83,308.54 Z M737.86,301 L748.26,301 L748.26,369.51 C748.26,377.57004 746.873347,383.593313 744.1,387.58 C741.326653,391.566687 736.906697,393.56 730.84,393.56 C730.146663,393.56 729.49667,393.538334 728.89,393.495 C728.28333,393.451666 727.633337,393.386667 726.94,393.3 L726.94,384.46 C729.366679,384.46 731.294993,384.09167 732.725,383.355 C734.155007,382.61833 735.259996,381.470008 736.04,379.91 C736.820004,378.349992 737.318332,376.378345 737.535,373.995 C737.751668,371.611655 737.86,368.816683 737.86,365.61 L737.86,301 Z M735.65,281.24 C735.65,279.246657 736.32166,277.535007 737.665,276.105 C739.00834,274.674993 740.71999,273.96 742.8,273.96 C744.88001,273.96 746.656659,274.674993 748.13,276.105 C749.603341,277.535007 750.34,279.246657 750.34,281.24 C750.34,283.233343 749.603341,284.879994 748.13,286.18 C746.656659,287.480007 744.88001,288.13 742.8,288.13 C740.71999,288.13 739.00834,287.480007 737.665,286.18 C736.32166,284.879994 735.65,283.233343 735.65,281.24 L735.65,281.24 Z M799.09,348.32 C799.09,345.719987 798.310008,343.683341 796.75,342.21 C795.189992,340.736659 793.261678,339.501672 790.965,338.505 C788.668322,337.508328 786.155014,336.555005 783.425,335.645 C780.694986,334.734995 778.181678,333.565007 775.885,332.135 C773.588322,330.704993 771.660008,328.863345 770.1,326.61 C768.539992,324.356655 767.76,321.323352 767.76,317.51 C767.76,311.269969 769.536649,306.698348 773.09,303.795 C776.643351,300.891652 781.583302,299.44 787.91,299.44 C792.590023,299.44 796.511651,299.851663 799.675,300.675 C802.838349,301.498337 805.589988,302.473328 807.93,303.6 L805.46,312.18 C803.466657,311.226662 801.061681,310.38167 798.245,309.645 C795.428319,308.90833 792.416683,308.54 789.21,308.54 C785.396648,308.54 782.601676,309.189994 780.825,310.49 C779.048324,311.790007 778.16,314.043317 778.16,317.25 C778.16,319.503345 778.939992,321.258327 780.5,322.515 C782.060008,323.771673 783.988322,324.898328 786.285,325.895 C788.581678,326.891672 791.094986,327.866662 793.825,328.82 C796.555014,329.773338 799.068322,331.029992 801.365,332.59 C803.661678,334.150008 805.589992,336.121655 807.15,338.505 C808.710008,340.888345 809.49,344.029981 809.49,347.93 C809.49,350.703347 809.035005,353.303321 808.125,355.73 C807.214995,358.156679 805.806676,360.236658 803.9,361.97 C801.993324,363.703342 799.631681,365.068328 796.815,366.065 C793.998319,367.061672 790.683352,367.56 786.87,367.56 C781.929975,367.56 777.726684,367.083338 774.26,366.13 C770.793316,365.176662 767.890012,364.050007 765.55,362.75 L768.67,353.91 C770.663343,355.036672 773.263317,356.076662 776.47,357.03 C779.676683,357.983338 782.92665,358.46 786.22,358.46 C789.946685,358.46 793.023321,357.723341 795.45,356.25 C797.876679,354.776659 799.09,352.133352 799.09,348.32 L799.09,348.32 Z M821.58,360.02 C821.58,357.679988 822.25166,355.83834 823.595,354.495 C824.93834,353.15166 826.736655,352.48 828.99,352.48 C831.330012,352.48 833.193326,353.15166 834.58,354.495 C835.966674,355.83834 836.66,357.679988 836.66,360.02 C836.66,362.273345 835.966674,364.093326 834.58,365.48 C833.193326,366.866674 831.330012,367.56 828.99,367.56 C826.736655,367.56 824.93834,366.866674 823.595,365.48 C822.25166,364.093326 821.58,362.273345 821.58,360.02 L821.58,360.02 Z M864.61,350.01 C864.61,353.043348 865.129995,355.209993 866.17,356.51 C867.210005,357.810006 868.683324,358.46 870.59,358.46 C871.716672,358.46 872.929994,358.373334 874.23,358.2 C875.530007,358.026666 877.003325,357.63667 878.65,357.03 L879.82,365.22 C878.433326,365.913337 876.505012,366.476664 874.035,366.91 C871.564988,367.343335 869.420009,367.56 867.6,367.56 C863.699981,367.56 860.493346,366.455011 857.98,364.245 C855.466654,362.034989 854.21,358.286693 854.21,353 L854.21,275 L864.61,275 L864.61,350.01 Z M893.21,301 L903.61,301 L903.61,366 L893.21,366 L893.21,301 Z M891,281.24 C891,279.246657 891.67166,277.535007 893.015,276.105 C894.35834,274.674993 896.06999,273.96 898.15,273.96 C900.23001,273.96 902.006659,274.674993 903.48,276.105 C904.953341,277.535007 905.69,279.246657 905.69,281.24 C905.69,283.233343 904.953341,284.879994 903.48,286.18 C902.006659,287.480007 900.23001,288.13 898.15,288.13 C896.06999,288.13 894.35834,287.480007 893.015,286.18 C891.67166,284.879994 891,283.233343 891,281.24 L891,281.24 Z M925.84,275 L936.24,275 L936.24,307.37 L936.76,307.37 C938.753343,304.856654 941.288318,302.906674 944.365,301.52 C947.441682,300.133326 950.799982,299.44 954.44,299.44 C962.846709,299.44 969.151646,302.12664 973.355,307.5 C977.558354,312.87336 979.66,321.193277 979.66,332.46 C979.66,343.81339 976.886694,352.436637 971.34,358.33 C965.793306,364.223363 957.993384,367.17 947.94,367.17 C943.086642,367.17 938.688353,366.650005 934.745,365.61 C930.801647,364.569995 927.833343,363.443339 925.84,362.23 L925.84,275 Z M952.62,308.54 C948.286645,308.54 944.77668,309.753321 942.09,312.18 C939.40332,314.606679 937.453339,318.029978 936.24,322.45 L936.24,355.21 C937.886675,356.163338 939.879988,356.878331 942.22,357.355 C944.560012,357.831669 946.986654,358.07 949.5,358.07 C955.393363,358.07 960.094982,355.990021 963.605,351.83 C967.115018,347.669979 968.87,341.170044 968.87,332.33 C968.87,328.949983 968.56667,325.786681 967.96,322.84 C967.35333,319.893319 966.400007,317.38001 965.1,315.3 C963.799994,313.21999 962.131677,311.573339 960.095,310.36 C958.058323,309.146661 955.566681,308.54 952.62,308.54 L952.62,308.54 Z M1037.77,366 L1037.77,328.95 C1037.77,325.569983 1037.575,322.601679 1037.185,320.045 C1036.795,317.488321 1036.08001,315.365008 1035.04,313.675 C1033.99999,311.984992 1032.59168,310.706671 1030.815,309.84 C1029.03832,308.973329 1026.72001,308.54 1023.86,308.54 C1019.78665,308.54 1016.10335,309.861653 1012.81,312.505 C1009.51665,315.148347 1007.39334,318.549979 1006.44,322.71 L1006.44,366 L996.04,366 L996.04,275 L1006.44,275 L1006.44,308.28 L1006.96,308.28 C1009.21334,305.59332 1011.92165,303.448341 1015.085,301.845 C1018.24835,300.241659 1022.16998,299.44 1026.85,299.44 C1030.49002,299.44 1033.65332,299.851663 1036.34,300.675 C1039.02668,301.498337 1041.25832,302.94999 1043.035,305.03 C1044.81168,307.11001 1046.11166,309.904982 1046.935,313.415 C1047.75834,316.925018 1048.17,321.36664 1048.17,326.74 L1048.17,366 L1037.77,366 Z M1076.51,301 L1076.51,338.05 C1076.51,341.430017 1076.705,344.398321 1077.095,346.955 C1077.485,349.511679 1078.15666,351.634992 1079.11,353.325 C1080.06334,355.015008 1081.36333,356.293329 1083.01,357.16 C1084.65667,358.026671 1086.73665,358.46 1089.25,358.46 C1091.59001,358.46 1093.66999,358.09167 1095.49,357.355 C1097.31001,356.61833 1098.93499,355.600007 1100.365,354.3 C1101.79501,352.999994 1103.05166,351.505008 1104.135,349.815 C1105.21834,348.124992 1106.10666,346.326676 1106.8,344.42 L1106.8,301 L1117.2,301 L1117.2,347.54 C1117.2,350.660016 1117.30833,353.888317 1117.525,357.225 C1117.74167,360.561683 1118.11,363.486654 1118.63,366 L1111.48,366 L1108.88,355.73 L1108.23,355.73 C1106.23666,359.110017 1103.55002,361.926655 1100.17,364.18 C1096.78998,366.433345 1092.50003,367.56 1087.3,367.56 C1083.83332,367.56 1080.77835,367.148337 1078.135,366.325 C1075.49165,365.501663 1073.28168,364.05001 1071.505,361.97 C1069.72832,359.88999 1068.385,357.095018 1067.475,353.585 C1066.565,350.074982 1066.11,345.63336 1066.11,340.26 L1066.11,301 L1076.51,301 Z M1178.95,366 L1178.95,328.95 C1178.95,322.189966 1177.97501,317.09835 1176.025,313.675 C1174.07499,310.25165 1170.50003,308.54 1165.3,308.54 C1160.70664,308.54 1156.91501,309.774988 1153.925,312.245 C1150.93499,314.715012 1148.83334,317.813315 1147.62,321.54 L1147.62,366 L1137.22,366 L1137.22,301 L1144.5,301 L1146.45,308.93 L1146.97,308.93 C1149.05001,306.156653 1151.84498,303.881676 1155.355,302.105 C1158.86502,300.328324 1163.04664,299.44 1167.9,299.44 C1171.45335,299.44 1174.57332,299.851663 1177.26,300.675 C1179.94668,301.498337 1182.17832,302.94999 1183.955,305.03 C1185.73168,307.11001 1187.075,309.904982 1187.985,313.415 C1188.895,316.925018 1189.35,321.36664 1189.35,326.74 L1189.35,366 L1178.95,366 Z M1199.75,301 L1209.89,301 L1209.89,288.13 L1220.29,285.14 L1220.29,301 L1237.97,301 L1237.97,310.1 L1220.29,310.1 L1220.29,346.11 C1220.29,350.616689 1220.85333,353.801657 1221.98,355.665 C1223.10667,357.528343 1225.01332,358.46 1227.7,358.46 C1229.95334,358.46 1231.85999,358.221669 1233.42,357.745 C1234.98001,357.268331 1236.71332,356.640004 1238.62,355.86 L1240.96,363.79 C1238.61999,364.916672 1236.06335,365.826663 1233.29,366.52 C1230.51665,367.213337 1227.52668,367.56 1224.32,367.56 C1219.03331,367.56 1215.30668,366.065015 1213.14,363.075 C1210.97332,360.084985 1209.89,355.080035 1209.89,348.06 L1209.89,310.1 L1199.75,310.1 L1199.75,301 Z M1250.84,360.02 C1250.84,357.679988 1251.51166,355.83834 1252.855,354.495 C1254.19834,353.15166 1255.99666,352.48 1258.25,352.48 C1260.59001,352.48 1262.45333,353.15166 1263.84,354.495 C1265.22667,355.83834 1265.92,357.679988 1265.92,360.02 C1265.92,362.273345 1265.22667,364.093326 1263.84,365.48 C1262.45333,366.866674 1260.59001,367.56 1258.25,367.56 C1255.99666,367.56 1254.19834,366.866674 1252.855,365.48 C1251.51166,364.093326 1250.84,362.273345 1250.84,360.02 L1250.84,360.02 Z M1326.63,361.71 C1324.02999,363.616676 1320.95335,365.068328 1317.4,366.065 C1313.84665,367.061672 1310.12002,367.56 1306.22,367.56 C1301.19331,367.56 1296.94668,366.758341 1293.48,365.155 C1290.01332,363.551659 1287.17501,361.255015 1284.965,358.265 C1282.75499,355.274985 1281.15167,351.678354 1280.155,347.475 C1279.15833,343.271646 1278.66,338.613359 1278.66,333.5 C1278.66,322.493278 1281.08664,314.065029 1285.94,308.215 C1290.79336,302.364971 1297.76995,299.44 1306.87,299.44 C1311.03002,299.44 1314.56165,299.764997 1317.465,300.415 C1320.36835,301.065003 1322.98999,301.996661 1325.33,303.21 L1322.34,312.18 C1320.34666,311.053328 1318.13668,310.165003 1315.71,309.515 C1313.28332,308.864997 1310.68335,308.54 1307.91,308.54 C1295.60327,308.54 1289.45,316.859917 1289.45,333.5 C1289.45,336.79335 1289.775,339.934985 1290.425,342.925 C1291.075,345.915015 1292.15833,348.558322 1293.675,350.855 C1295.19167,353.151678 1297.18499,354.993326 1299.655,356.38 C1302.12501,357.766674 1305.17998,358.46 1308.82,358.46 C1311.94002,358.46 1314.73499,357.983338 1317.205,357.03 C1319.67501,356.076662 1321.68999,354.993339 1323.25,353.78 L1326.63,361.71 Z M1334.3,333.5 C1334.3,322.493278 1336.74831,314.065029 1341.645,308.215 C1346.54169,302.364971 1353.58329,299.44 1362.77,299.44 C1367.62336,299.44 1371.84832,300.241659 1375.445,301.845 C1379.04168,303.448341 1382.00999,305.744985 1384.35,308.735 C1386.69001,311.725015 1388.42333,315.321646 1389.55,319.525 C1390.67667,323.728354 1391.24,328.386641 1391.24,333.5 C1391.24,344.506722 1388.79169,352.934971 1383.895,358.785 C1378.99831,364.635029 1371.95671,367.56 1362.77,367.56 C1357.91664,367.56 1353.69168,366.758341 1350.095,365.155 C1346.49832,363.551659 1343.53001,361.255015 1341.19,358.265 C1338.84999,355.274985 1337.11667,351.678354 1335.99,347.475 C1334.86333,343.271646 1334.3,338.613359 1334.3,333.5 L1334.3,333.5 Z M1345.09,333.5 C1345.09,336.79335 1345.415,339.956652 1346.065,342.99 C1346.715,346.023349 1347.73333,348.666655 1349.12,350.92 C1350.50667,353.173345 1352.32666,354.993326 1354.58,356.38 C1356.83334,357.766674 1359.56332,358.46 1362.77,358.46 C1374.55673,358.546667 1380.45,350.22675 1380.45,333.5 C1380.45,330.119983 1380.125,326.913349 1379.475,323.88 C1378.825,320.846652 1377.80667,318.203345 1376.42,315.95 C1375.03333,313.696655 1373.21334,311.89834 1370.96,310.555 C1368.70666,309.21166 1365.97668,308.54 1362.77,308.54 C1350.98327,308.453333 1345.09,316.77325 1345.09,333.5 L1345.09,333.5 Z M1445.71,366 L1445.71,329.21 C1445.71,325.743316 1445.55833,322.731679 1445.255,320.175 C1444.95167,317.618321 1444.36667,315.473342 1443.5,313.74 C1442.63333,312.006658 1441.39834,310.706671 1439.795,309.84 C1438.19166,308.973329 1436.09001,308.54 1433.49,308.54 C1429.50331,308.54 1426.18835,309.753321 1423.545,312.18 C1420.90165,314.606679 1419.06001,317.639982 1418.02,321.28 L1418.02,366 L1407.62,366 L1407.62,301 L1414.9,301 L1416.85,308.93 L1417.37,308.93 C1419.71001,306.156653 1422.41832,303.881676 1425.495,302.105 C1428.57168,300.328324 1432.57998,299.44 1437.52,299.44 C1441.68002,299.44 1445.08165,300.241659 1447.725,301.845 C1450.36835,303.448341 1452.42666,306.243313 1453.9,310.23 C1455.89334,306.849983 1458.64498,304.206676 1462.155,302.3 C1465.66502,300.393324 1469.62998,299.44 1474.05,299.44 C1477.69002,299.44 1480.76665,299.851663 1483.28,300.675 C1485.79335,301.498337 1487.87333,302.94999 1489.52,305.03 C1491.16667,307.11001 1492.35833,309.926649 1493.095,313.48 C1493.83167,317.033351 1494.2,321.539973 1494.2,327 L1494.2,366 L1483.8,366 L1483.8,326.87 C1483.8,323.749984 1483.64833,321.041678 1483.345,318.745 C1483.04167,316.448322 1482.435,314.541674 1481.525,313.025 C1480.615,311.508326 1479.35834,310.38167 1477.755,309.645 C1476.15166,308.90833 1474.05001,308.54 1471.45,308.54 C1467.11665,308.54 1463.73668,309.753321 1461.31,312.18 C1458.88332,314.606679 1457.15001,318.073311 1456.11,322.58 L1456.11,366 L1445.71,366 Z" id="nodejs.libhunt.com" fill="#4A4A4A"/>
                <path d="M546.2,160.8 L494.6,160.8 L481.88,198 L449,198 L509.48,28.8 L533.72,28.8 L594.2,198 L559.64,198 L546.2,160.8 Z M503,134.4 L539,134.4 L526.52,96.96 L521.48,70.56 L520.28,70.56 L515.24,97.2 L503,134.4 Z M685.64,78 L707.48,139.44 L711.8,159.36 L712.76,159.36 L716.12,139.2 L731.48,78 L760.04,78 L723.08,199.2 L700.04,199.2 L675.8,132 L672.68,116.88 L671.48,116.88 L668.6,132.24 L645.56,199.2 L621.8,199.2 L583.16,78 L617,78 L634.52,138.24 L637.4,159.6 L638.6,159.6 L642.68,138 L662.6,78 L685.64,78 Z M865.64,187.68 C860.839976,191.520019 854.320041,194.759987 846.08,197.4 C837.839959,200.040013 829.080046,201.36 819.8,201.36 C800.439903,201.36 786.280045,195.720056 777.32,184.44 C768.359955,173.159944 763.88,157.680098 763.88,138 C763.88,116.879894 768.91995,101.040053 779,90.48 C789.08005,79.9199472 803.239909,74.64 821.48,74.64 C827.56003,74.64 833.479971,75.439992 839.24,77.04 C845.000029,78.640008 850.119978,81.2799816 854.6,84.96 C859.080022,88.6400184 862.679986,93.5999688 865.4,99.84 C868.120014,106.080031 869.48,113.839954 869.48,123.12 C869.48,126.480017 869.280002,130.079981 868.88,133.92 C868.479998,137.760019 867.880004,141.759979 867.08,145.92 L795.08,145.92 C795.560002,156.00005 798.159976,163.599974 802.88,168.72 C807.600024,173.840026 815.239947,176.4 825.8,176.4 C832.360033,176.4 838.239974,175.40001 843.44,173.4 C848.640026,171.39999 852.599986,169.36001 855.32,167.28 L865.64,187.68 Z M821,99.6 C812.839959,99.6 806.80002,102.039976 802.88,106.92 C798.95998,111.800024 796.600004,118.319959 795.8,126.48 L840.44,126.48 C841.080003,117.839957 839.760016,111.200023 836.48,106.56 C833.199984,101.919977 828.040035,99.6 821,99.6 L821,99.6 Z M941.24,164.88 C941.24,161.679984 939.880014,159.12001 937.16,157.2 C934.439986,155.27999 931.08002,153.520008 927.08,151.92 C923.07998,150.319992 918.680024,148.680008 913.88,147 C909.079976,145.319992 904.68002,143.000015 900.68,140.04 C896.67998,137.079985 893.320014,133.320023 890.6,128.76 C887.879986,124.199977 886.52,118.320036 886.52,111.12 C886.52,99.2799408 890.039965,90.2400312 897.08,84 C904.120035,77.7599688 914.279934,74.64 927.56,74.64 C936.680046,74.64 944.919963,75.5999904 952.28,77.52 C959.640037,79.4400096 965.399979,81.599988 969.56,84 L962.6,106.56 C958.919982,105.119993 954.280028,103.600008 948.68,102 C943.079972,100.399992 937.400029,99.6 931.64,99.6 C922.359954,99.6 917.72,103.199964 917.72,110.4 C917.72,113.280014 919.079986,115.599991 921.8,117.36 C924.520014,119.120009 927.87998,120.759992 931.88,122.28 C935.88002,123.800008 940.279976,125.439991 945.08,127.2 C949.880024,128.960009 954.27998,131.239986 958.28,134.04 C962.28002,136.840014 965.639986,140.479978 968.36,144.96 C971.080014,149.440022 972.44,155.199965 972.44,162.24 C972.44,174.400061 968.560039,183.959965 960.8,190.92 C953.039961,197.880035 941.400078,201.36 925.88,201.36 C917.399958,201.36 909.440037,200.280011 902,198.12 C894.559963,195.959989 888.520023,193.440014 883.88,190.56 L892.52,167.28 C896.200018,169.36001 901.07997,171.39999 907.16,173.4 C913.24003,175.40001 919.479968,176.4 925.88,176.4 C930.520023,176.4 934.239986,175.520009 937.04,173.76 C939.840014,171.999991 941.24,169.040021 941.24,164.88 L941.24,164.88 Z M987.08,138 C987.08,117.679898 992.03995,102.040055 1001.96,91.08 C1011.88005,80.1199452 1025.79991,74.64 1043.72,74.64 C1053.32005,74.64 1061.63996,76.1599848 1068.68,79.2 C1075.72004,82.2400152 1081.55998,86.5199724 1086.2,92.04 C1090.84002,97.5600276 1094.31999,104.239961 1096.64,112.08 C1098.96001,119.920039 1100.12,128.559953 1100.12,138 C1100.12,158.320102 1095.20005,173.959945 1085.36,184.92 C1075.51995,195.880055 1061.64009,201.36 1043.72,201.36 C1034.11995,201.36 1025.80004,199.840015 1018.76,196.8 C1011.71996,193.759985 1005.84002,189.480028 1001.12,183.96 C996.399976,178.439972 992.880012,171.760039 990.56,163.92 C988.239988,156.079961 987.08,147.440047 987.08,138 L987.08,138 Z M1019.24,138 C1019.24,143.280026 1019.72,148.159978 1020.68,152.64 C1021.64,157.120022 1023.07999,161.039983 1025,164.4 C1026.92001,167.760017 1029.43998,170.359991 1032.56,172.2 C1035.68002,174.040009 1039.39998,174.96 1043.72,174.96 C1051.88004,174.96 1057.95998,172.00003 1061.96,166.08 C1065.96002,160.15997 1067.96,150.800064 1067.96,138 C1067.96,126.959945 1066.12002,118.040034 1062.44,111.24 C1058.75998,104.439966 1052.52004,101.04 1043.72,101.04 C1036.03996,101.04 1030.04002,103.919971 1025.72,109.68 C1021.39998,115.440029 1019.24,124.879934 1019.24,138 L1019.24,138 Z M1189.88,198 L1189.88,132.72 C1189.88,121.679945 1188.84001,113.840023 1186.76,109.2 C1184.67999,104.559977 1180.36003,102.24 1173.8,102.24 C1168.35997,102.24 1163.96002,103.719985 1160.6,106.68 C1157.23998,109.640015 1154.68001,113.439977 1152.92,118.08 L1152.92,198 L1121.72,198 L1121.72,78 L1145.96,78 L1149.56,93.84 L1150.52,93.84 C1154.20002,88.7199744 1158.87997,84.2400192 1164.56,80.4 C1170.24003,76.5599808 1177.55996,74.64 1186.52,74.64 C1194.20004,74.64 1200.47998,76.1999844 1205.36,79.32 C1210.24002,82.4400156 1214.03999,87.6799632 1216.76,95.04 C1220.44002,88.7999688 1225.15997,83.8400184 1230.92,80.16 C1236.68003,76.4799816 1243.63996,74.64 1251.8,74.64 C1258.52003,74.64 1264.23998,75.439992 1268.96,77.04 C1273.68002,78.640008 1277.51999,81.3999804 1280.48,85.32 C1283.44001,89.2400196 1285.63999,94.4799672 1287.08,101.04 C1288.52001,107.600033 1289.24,115.91995 1289.24,126 L1289.24,198 L1258.04,198 L1258.04,130.56 C1258.04,121.119953 1257.04001,114.040024 1255.04,109.32 C1253.03999,104.599976 1248.60003,102.24 1241.72,102.24 C1236.11997,102.24 1231.68002,103.759985 1228.4,106.8 C1225.11998,109.840015 1222.68001,113.999974 1221.08,119.28 L1221.08,198 L1189.88,198 Z M1410.92,187.68 C1406.11998,191.520019 1399.60004,194.759987 1391.36,197.4 C1383.11996,200.040013 1374.36005,201.36 1365.08,201.36 C1345.7199,201.36 1331.56004,195.720056 1322.6,184.44 C1313.63996,173.159944 1309.16,157.680098 1309.16,138 C1309.16,116.879894 1314.19995,101.040053 1324.28,90.48 C1334.36005,79.9199472 1348.51991,74.64 1366.76,74.64 C1372.84003,74.64 1378.75997,75.439992 1384.52,77.04 C1390.28003,78.640008 1395.39998,81.2799816 1399.88,84.96 C1404.36002,88.6400184 1407.95999,93.5999688 1410.68,99.84 C1413.40001,106.080031 1414.76,113.839954 1414.76,123.12 C1414.76,126.480017 1414.56,130.079981 1414.16,133.92 C1413.76,137.760019 1413.16,141.759979 1412.36,145.92 L1340.36,145.92 C1340.84,156.00005 1343.43998,163.599974 1348.16,168.72 C1352.88002,173.840026 1360.51995,176.4 1371.08,176.4 C1377.64003,176.4 1383.51997,175.40001 1388.72,173.4 C1393.92003,171.39999 1397.87999,169.36001 1400.6,167.28 L1410.92,187.68 Z M1366.28,99.6 C1358.11996,99.6 1352.08002,102.039976 1348.16,106.92 C1344.23998,111.800024 1341.88,118.319959 1341.08,126.48 L1385.72,126.48 C1386.36,117.839957 1385.04002,111.200023 1381.76,106.56 C1378.47998,101.919977 1373.32004,99.6 1366.28,99.6 L1366.28,99.6 Z M1540.04,110.4 L1526.84,84 L1525.64,84 L1529.48,110.4 L1529.48,198 L1498.28,198 L1498.28,28.8 L1522.28,28.8 L1585.88,118.32 L1598.6,144 L1599.8,144 L1595.96,118.32 L1595.96,30 L1627.16,30 L1627.16,199.2 L1603.16,199.2 L1540.04,110.4 Z M1649.48,138 C1649.48,117.679898 1654.43995,102.040055 1664.36,91.08 C1674.28005,80.1199452 1688.19991,74.64 1706.12,74.64 C1715.72005,74.64 1724.03996,76.1599848 1731.08,79.2 C1738.12004,82.2400152 1743.95998,86.5199724 1748.6,92.04 C1753.24002,97.5600276 1756.71999,104.239961 1759.04,112.08 C1761.36001,119.920039 1762.52,128.559953 1762.52,138 C1762.52,158.320102 1757.60005,173.959945 1747.76,184.92 C1737.91995,195.880055 1724.04009,201.36 1706.12,201.36 C1696.51995,201.36 1688.20004,199.840015 1681.16,196.8 C1674.11996,193.759985 1668.24002,189.480028 1663.52,183.96 C1658.79998,178.439972 1655.28001,171.760039 1652.96,163.92 C1650.63999,156.079961 1649.48,147.440047 1649.48,138 L1649.48,138 Z M1681.64,138 C1681.64,143.280026 1682.12,148.159978 1683.08,152.64 C1684.04,157.120022 1685.47999,161.039983 1687.4,164.4 C1689.32001,167.760017 1691.83998,170.359991 1694.96,172.2 C1698.08002,174.040009 1701.79998,174.96 1706.12,174.96 C1714.28004,174.96 1720.35998,172.00003 1724.36,166.08 C1728.36002,160.15997 1730.36,150.800064 1730.36,138 C1730.36,126.959945 1728.52002,118.040034 1724.84,111.24 C1721.15998,104.439966 1714.92004,101.04 1706.12,101.04 C1698.43996,101.04 1692.44002,103.919971 1688.12,109.68 C1683.79998,115.440029 1681.64,124.879934 1681.64,138 L1681.64,138 Z M1886.12,155.76 C1886.12,162.480034 1886.2,169.199966 1886.36,175.92 C1886.52,182.640034 1887.23999,190.079959 1888.52,198.24 L1866.2,198.24 L1861.88,182.64 L1860.92,182.64 C1857.71998,188.240028 1853.12003,192.759983 1847.12,196.2 C1841.11997,199.640017 1834.04004,201.36 1825.88,201.36 C1810.83992,201.36 1799.16004,196.40005 1790.84,186.48 C1782.51996,176.55995 1778.36,161.040106 1778.36,139.92 C1778.36,119.439898 1782.99995,103.520057 1792.28,92.16 C1801.56005,80.7999432 1815.15991,75.12 1833.08,75.12 C1838.04002,75.12 1842.11998,75.3999972 1845.32,75.96 C1848.52002,76.5200028 1851.71998,77.4399936 1854.92,78.72 L1854.92,30 L1886.12,30 L1886.12,155.76 Z M1833.08,174.96 C1839.16003,174.96 1843.95998,173.480015 1847.48,170.52 C1851.00002,167.559985 1853.47999,163.280028 1854.92,157.68 L1854.92,106.8 C1852.67999,105.039991 1850.20001,103.720004 1847.48,102.84 C1844.75999,101.959996 1841.24002,101.52 1836.92,101.52 C1828.11996,101.52 1821.52002,104.47997 1817.12,110.4 C1812.71998,116.32003 1810.52,126.479928 1810.52,140.88 C1810.52,151.120051 1812.31998,159.359969 1815.92,165.6 C1819.52002,171.840031 1825.23996,174.96 1833.08,174.96 L1833.08,174.96 Z M2009.48,187.68 C2004.67998,191.520019 1998.16004,194.759987 1989.92,197.4 C1981.67996,200.040013 1972.92005,201.36 1963.64,201.36 C1944.2799,201.36 1930.12004,195.720056 1921.16,184.44 C1912.19996,173.159944 1907.72,157.680098 1907.72,138 C1907.72,116.879894 1912.75995,101.040053 1922.84,90.48 C1932.92005,79.9199472 1947.07991,74.64 1965.32,74.64 C1971.40003,74.64 1977.31997,75.439992 1983.08,77.04 C1988.84003,78.640008 1993.95998,81.2799816 1998.44,84.96 C2002.92002,88.6400184 2006.51999,93.5999688 2009.24,99.84 C2011.96001,106.080031 2013.32,113.839954 2013.32,123.12 C2013.32,126.480017 2013.12,130.079981 2012.72,133.92 C2012.32,137.760019 2011.72,141.759979 2010.92,145.92 L1938.92,145.92 C1939.4,156.00005 1941.99998,163.599974 1946.72,168.72 C1951.44002,173.840026 1959.07995,176.4 1969.64,176.4 C1976.20003,176.4 1982.07997,175.40001 1987.28,173.4 C1992.48003,171.39999 1996.43999,169.36001 1999.16,167.28 L2009.48,187.68 Z M1964.84,99.6 C1956.67996,99.6 1950.64002,102.039976 1946.72,106.92 C1942.79998,111.800024 1940.44,118.319959 1939.64,126.48 L1984.28,126.48 C1984.92,117.839957 1983.60002,111.200023 1980.32,106.56 C1977.03998,101.919977 1971.88004,99.6 1964.84,99.6 L1964.84,99.6 Z M2031.8,182.16 C2031.8,176.559972 2033.55998,172.120016 2037.08,168.84 C2040.60002,165.559984 2045.23997,163.92 2051,163.92 C2057.08003,163.92 2061.87998,165.559984 2065.4,168.84 C2068.92002,172.120016 2070.68,176.559972 2070.68,182.16 C2070.68,187.760028 2068.92002,192.239983 2065.4,195.6 C2061.87998,198.960017 2057.08003,200.64 2051,200.64 C2045.23997,200.64 2040.60002,198.960017 2037.08,195.6 C2033.55998,192.239983 2031.8,187.760028 2031.8,182.16 L2031.8,182.16 Z M2097.32,78 L2128.52,78 L2128.52,203.04 C2128.52,217.600073 2125.64003,228.719962 2119.88,236.4 C2114.11997,244.080038 2104.92006,247.92 2092.28,247.92 C2087.47998,247.92 2082.36003,247.360006 2076.92,246.24 L2076.92,220.08 C2077.56,220.08 2078.12,220.12 2078.6,220.2 C2079.08,220.28 2079.56,220.32 2080.04,220.32 C2087.24004,220.32 2091.91999,218.000023 2094.08,213.36 C2096.24001,208.719977 2097.32,202.320041 2097.32,194.16 L2097.32,78 Z M2093.24,44.16 C2093.24,39.5199768 2094.95998,35.5600164 2098.4,32.28 C2101.84002,28.9999836 2106.59997,27.36 2112.68,27.36 C2118.76003,27.36 2123.67998,28.9999836 2127.44,32.28 C2131.20002,35.5600164 2133.08,39.5199768 2133.08,44.16 C2133.08,48.8000232 2131.20002,52.6799844 2127.44,55.8 C2123.67998,58.9200156 2118.76003,60.48 2112.68,60.48 C2106.59997,60.48 2101.84002,58.9200156 2098.4,55.8 C2094.95998,52.6799844 2093.24,48.8000232 2093.24,44.16 L2093.24,44.16 Z M2208.44,164.88 C2208.44,161.679984 2207.08001,159.12001 2204.36,157.2 C2201.63999,155.27999 2198.28002,153.520008 2194.28,151.92 C2190.27998,150.319992 2185.88002,148.680008 2181.08,147 C2176.27998,145.319992 2171.88002,143.000015 2167.88,140.04 C2163.87998,137.079985 2160.52001,133.320023 2157.8,128.76 C2155.07999,124.199977 2153.72,118.320036 2153.72,111.12 C2153.72,99.2799408 2157.23996,90.2400312 2164.28,84 C2171.32004,77.7599688 2181.47993,74.64 2194.76,74.64 C2203.88005,74.64 2212.11996,75.5999904 2219.48,77.52 C2226.84004,79.4400096 2232.59998,81.599988 2236.76,84 L2229.8,106.56 C2226.11998,105.119993 2221.48003,103.600008 2215.88,102 C2210.27997,100.399992 2204.60003,99.6 2198.84,99.6 C2189.55995,99.6 2184.92,103.199964 2184.92,110.4 C2184.92,113.280014 2186.27999,115.599991 2189,117.36 C2191.72001,119.120009 2195.07998,120.759992 2199.08,122.28 C2203.08002,123.800008 2207.47998,125.439991 2212.28,127.2 C2217.08002,128.960009 2221.47998,131.239986 2225.48,134.04 C2229.48002,136.840014 2232.83999,140.479978 2235.56,144.96 C2238.28001,149.440022 2239.64,155.199965 2239.64,162.24 C2239.64,174.400061 2235.76004,183.959965 2228,190.92 C2220.23996,197.880035 2208.60008,201.36 2193.08,201.36 C2184.59996,201.36 2176.64004,200.280011 2169.2,198.12 C2161.75996,195.959989 2155.72002,193.440014 2151.08,190.56 L2159.72,167.28 C2163.40002,169.36001 2168.27997,171.39999 2174.36,173.4 C2180.44003,175.40001 2186.67997,176.4 2193.08,176.4 C2197.72002,176.4 2201.43999,175.520009 2204.24,173.76 C2207.04001,171.999991 2208.44,169.040021 2208.44,164.88 L2208.44,164.88 Z" id="Awesome-Node.js" fill="#2C2525"/>
            </g>
        </g>
    </g>
<script xmlns=""/></svg>